<svg width="1600" height="520" viewBox="0 0 1600 520" fill="none" xmlns="http://www.w3.org/2000/svg" role="img" aria-label="Social-use banner">
  <defs>
    <linearGradient id="bg" x1="108" y1="39" x2="1498" y2="484" gradientUnits="userSpaceOnUse">
      <stop stop-color="#07101C"/>
      <stop offset="1" stop-color="#0E2A46"/>
    </linearGradient>
    <linearGradient id="accent" x1="339" y1="85" x2="1219" y2="467" gradientUnits="userSpaceOnUse">
      <stop stop-color="#34D399"/>
      <stop offset="1" stop-color="#60A5FA"/>
    </linearGradient>
    <radialGradient id="glow" cx="0" cy="0" r="1" gradientUnits="userSpaceOnUse" gradientTransform="translate(1200 150) rotate(127.115) scale(380 540)">
      <stop stop-color="#60A5FA" stop-opacity="0.28"/>
      <stop offset="1" stop-color="#60A5FA" stop-opacity="0"/>
    </radialGradient>
    <filter id="shadow" x="0" y="0" width="1600" height="520" filterUnits="userSpaceOnUse" color-interpolation-filters="sRGB">
      <feDropShadow dx="0" dy="18" stdDeviation="24" flood-color="#000000" flood-opacity="0.28"/>
    </filter>
  </defs>
  <rect width="1600" height="520" rx="36" fill="url(#bg)"/>
  <rect width="1600" height="520" rx="36" fill="url(#glow)"/>
  <circle cx="1338" cy="122" r="134" fill="#34D399" fill-opacity="0.12"/>
  <circle cx="1268" cy="384" r="184" fill="#60A5FA" fill-opacity="0.10"/>
  <path d="M132 104C282 78 423 86 559 134C704 186 826 228 980 226C1118 224 1248 185 1468 104" stroke="#FFFFFF" stroke-opacity="0.12" stroke-width="2"/>
  <path d="M132 404C287 425 426 417 561 365C701 311 836 272 992 276C1138 280 1264 330 1468 403" stroke="#FFFFFF" stroke-opacity="0.10" stroke-width="2"/>
  <g filter="url(#shadow)">
    <rect x="104" y="112" width="544" height="296" rx="28" fill="#0E1728" stroke="#FFFFFF" stroke-opacity="0.10"/>
    <rect x="706" y="86" width="780" height="348" rx="32" fill="#08101B" stroke="#FFFFFF" stroke-opacity="0.10"/>
  </g>
  <rect x="144" y="150" width="184" height="20" rx="10" fill="#34D399"/>
  <rect x="144" y="190" width="332" height="22" rx="11" fill="#E2E8F0" fill-opacity="0.92"/>
  <rect x="144" y="226" width="278" height="14" rx="7" fill="#94A3B8" fill-opacity="0.85"/>
  <rect x="144" y="252" width="306" height="14" rx="7" fill="#94A3B8" fill-opacity="0.65"/>
  <rect x="144" y="296" width="134" height="44" rx="22" fill="url(#accent)"/>
  <text x="211" y="324" text-anchor="middle" font-family="Inter, Arial, sans-serif" font-size="18" font-weight="700" fill="#08111F">AI Agent</text>
  <rect x="296" y="296" width="178" height="44" rx="22" fill="#1F2937" stroke="#FFFFFF" stroke-opacity="0.10"/>
  <text x="385" y="324" text-anchor="middle" font-family="Inter, Arial, sans-serif" font-size="16" font-weight="600" fill="#E5E7EB">Multi-platform</text>
  <g>
    <rect x="748" y="126" width="214" height="88" rx="22" fill="#12233D" stroke="#60A5FA" stroke-opacity="0.24"/>
    <text x="820" y="163" font-family="Inter, Arial, sans-serif" font-size="16" font-weight="700" fill="#E2E8F0">Content</text>
    <text x="820" y="186" font-family="Inter, Arial, sans-serif" font-size="13" font-weight="500" fill="#94A3B8">Generate, rewrite, reuse</text>

    <rect x="994" y="126" width="214" height="88" rx="22" fill="#102A1E" stroke="#34D399" stroke-opacity="0.24"/>
    <text x="1066" y="163" font-family="Inter, Arial, sans-serif" font-size="16" font-weight="700" fill="#E2E8F0">Distribution</text>
    <text x="1066" y="186" font-family="Inter, Arial, sans-serif" font-size="13" font-weight="500" fill="#94A3B8">Post across platforms</text>

    <rect x="1240" y="126" width="214" height="88" rx="22" fill="#271A12" stroke="#F59E0B" stroke-opacity="0.24"/>
    <text x="1312" y="163" font-family="Inter, Arial, sans-serif" font-size="16" font-weight="700" fill="#E2E8F0">Growth</text>
    <text x="1312" y="186" font-family="Inter, Arial, sans-serif" font-size="13" font-weight="500" fill="#94A3B8">Engage, measure, improve</text>
  </g>
  <g>
    <rect x="748" y="244" width="706" height="148" rx="28" fill="#0F172A" stroke="#FFFFFF" stroke-opacity="0.08"/>
    <circle cx="804" cy="288" r="18" fill="#34D399"/>
    <circle cx="860" cy="288" r="18" fill="#60A5FA"/>
    <circle cx="916" cy="288" r="18" fill="#F59E0B"/>
    <rect x="988" y="270" width="384" height="16" rx="8" fill="#E2E8F0" fill-opacity="0.9"/>
    <rect x="988" y="298" width="266" height="12" rx="6" fill="#94A3B8" fill-opacity="0.8"/>
    <rect x="988" y="322" width="318" height="12" rx="6" fill="#94A3B8" fill-opacity="0.6"/>
    <rect x="988" y="348" width="162" height="28" rx="14" fill="#1F2937" stroke="#FFFFFF" stroke-opacity="0.1"/>
    <text x="1069" y="367" text-anchor="middle" font-family="Inter, Arial, sans-serif" font-size="13" font-weight="600" fill="#E5E7EB">social-use.com</text>
  </g>
  <text x="140" y="360" font-family="Inter, Arial, sans-serif" font-size="54" font-weight="800" fill="#F8FAFC">Social-use</text>
  <text x="140" y="414" font-family="Inter, Arial, sans-serif" font-size="24" font-weight="500" fill="#CBD5E1">AI social media operating platform for creators, brands, and teams</text>
</svg>
