<svg width="1600" height="420" viewBox="0 0 1600 420" fill="none" xmlns="http://www.w3.org/2000/svg" role="img" aria-label="Social-use workflow illustration">
  <defs>
    <linearGradient id="bg" x1="120" y1="54" x2="1478" y2="382" gradientUnits="userSpaceOnUse">
      <stop stop-color="#07101C"/>
      <stop offset="1" stop-color="#0D2540"/>
    </linearGradient>
    <linearGradient id="line" x1="180" y1="210" x2="1420" y2="210" gradientUnits="userSpaceOnUse">
      <stop stop-color="#34D399"/>
      <stop offset="1" stop-color="#60A5FA"/>
    </linearGradient>
    <linearGradient id="card1" x1="160" y1="132" x2="420" y2="318" gradientUnits="userSpaceOnUse">
      <stop stop-color="#10233F"/>
      <stop offset="1" stop-color="#0B172A"/>
    </linearGradient>
    <linearGradient id="card2" x1="584" y1="132" x2="844" y2="318" gradientUnits="userSpaceOnUse">
      <stop stop-color="#102A1E"/>
      <stop offset="1" stop-color="#081713"/>
    </linearGradient>
    <linearGradient id="card3" x1="1008" y1="132" x2="1268" y2="318" gradientUnits="userSpaceOnUse">
      <stop stop-color="#26171B"/>
      <stop offset="1" stop-color="#160D11"/>
    </linearGradient>
  </defs>
  <rect width="1600" height="420" rx="32" fill="url(#bg)"/>
  <path d="M170 210H1430" stroke="url(#line)" stroke-width="6" stroke-linecap="round" stroke-dasharray="2 18"/>
  <g>
    <rect x="120" y="120" width="320" height="180" rx="24" fill="url(#card1)" stroke="#60A5FA" stroke-opacity="0.20"/>
    <circle cx="184" cy="178" r="22" fill="#60A5FA"/>
    <rect x="228" y="160" width="160" height="18" rx="9" fill="#E2E8F0"/>
    <rect x="228" y="190" width="120" height="12" rx="6" fill="#94A3B8"/>
    <rect x="228" y="214" width="146" height="12" rx="6" fill="#94A3B8" fill-opacity="0.7"/>
    <text x="184" y="260" text-anchor="middle" font-family="Inter, Arial, sans-serif" font-size="16" font-weight="700" fill="#CBD5E1">Create</text>
  </g>
  <g>
    <rect x="640" y="120" width="320" height="180" rx="24" fill="url(#card2)" stroke="#34D399" stroke-opacity="0.20"/>
    <circle cx="704" cy="178" r="22" fill="#34D399"/>
    <rect x="748" y="160" width="166" height="18" rx="9" fill="#E2E8F0"/>
    <rect x="748" y="190" width="132" height="12" rx="6" fill="#94A3B8"/>
    <rect x="748" y="214" width="150" height="12" rx="6" fill="#94A3B8" fill-opacity="0.7"/>
    <text x="704" y="260" text-anchor="middle" font-family="Inter, Arial, sans-serif" font-size="16" font-weight="700" fill="#CBD5E1">Publish</text>
  </g>
  <g>
    <rect x="1160" y="120" width="320" height="180" rx="24" fill="url(#card3)" stroke="#F59E0B" stroke-opacity="0.20"/>
    <circle cx="1224" cy="178" r="22" fill="#F59E0B"/>
    <rect x="1268" y="160" width="150" height="18" rx="9" fill="#E2E8F0"/>
    <rect x="1268" y="190" width="112" height="12" rx="6" fill="#94A3B8"/>
    <rect x="1268" y="214" width="144" height="12" rx="6" fill="#94A3B8" fill-opacity="0.7"/>
    <text x="1224" y="260" text-anchor="middle" font-family="Inter, Arial, sans-serif" font-size="16" font-weight="700" fill="#CBD5E1">Engage</text>
  </g>
  <text x="800" y="360" text-anchor="middle" font-family="Inter, Arial, sans-serif" font-size="22" font-weight="700" fill="#E2E8F0">Create once. Publish everywhere. Keep improving.</text>
  <text x="800" y="388" text-anchor="middle" font-family="Inter, Arial, sans-serif" font-size="14" font-weight="500" fill="#94A3B8">AI content generation, multi-platform distribution, engagement, and analytics in one workflow.</text>
</svg>
