<svg width="1600" height="640" viewBox="0 0 1600 640" fill="none" xmlns="http://www.w3.org/2000/svg" role="img" aria-label="Social-use product showcase">
  <defs>
    <linearGradient id="bg" x1="120" y1="62" x2="1478" y2="582" gradientUnits="userSpaceOnUse">
      <stop stop-color="#08111F"/>
      <stop offset="1" stop-color="#0F223D"/>
    </linearGradient>
    <linearGradient id="cardA" x1="160" y1="124" x2="518" y2="486" gradientUnits="userSpaceOnUse">
      <stop stop-color="#10233F"/>
      <stop offset="1" stop-color="#0C1A31"/>
    </linearGradient>
    <linearGradient id="cardB" x1="624" y1="124" x2="982" y2="486" gradientUnits="userSpaceOnUse">
      <stop stop-color="#102A1E"/>
      <stop offset="1" stop-color="#0B1E16"/>
    </linearGradient>
    <linearGradient id="cardC" x1="1088" y1="124" x2="1446" y2="486" gradientUnits="userSpaceOnUse">
      <stop stop-color="#26181A"/>
      <stop offset="1" stop-color="#1A0F14"/>
    </linearGradient>
    <linearGradient id="accentA" x1="164" y1="206" x2="480" y2="382" gradientUnits="userSpaceOnUse">
      <stop stop-color="#60A5FA"/>
      <stop offset="1" stop-color="#34D399"/>
    </linearGradient>
    <linearGradient id="accentB" x1="628" y1="206" x2="944" y2="382" gradientUnits="userSpaceOnUse">
      <stop stop-color="#34D399"/>
      <stop offset="1" stop-color="#A7F3D0"/>
    </linearGradient>
    <linearGradient id="accentC" x1="1092" y1="206" x2="1408" y2="382" gradientUnits="userSpaceOnUse">
      <stop stop-color="#F59E0B"/>
      <stop offset="1" stop-color="#FB7185"/>
    </linearGradient>
    <filter id="shadow" x="0" y="0" width="1600" height="640" filterUnits="userSpaceOnUse" color-interpolation-filters="sRGB">
      <feDropShadow dx="0" dy="20" stdDeviation="28" flood-color="#000000" flood-opacity="0.32"/>
    </filter>
  </defs>

  <rect width="1600" height="640" rx="34" fill="url(#bg)"/>
  <path d="M136 118C288 74 422 84 560 134C698 184 832 224 992 224C1144 224 1262 186 1464 114" stroke="#FFFFFF" stroke-opacity="0.10" stroke-width="2"/>
  <path d="M136 540C286 586 424 574 560 522C702 468 842 428 996 430C1148 432 1274 478 1464 548" stroke="#FFFFFF" stroke-opacity="0.08" stroke-width="2"/>
  <circle cx="1328" cy="118" r="130" fill="#60A5FA" fill-opacity="0.08"/>
  <circle cx="1328" cy="524" r="150" fill="#34D399" fill-opacity="0.06"/>

  <g filter="url(#shadow)">
    <rect x="112" y="130" width="432" height="372" rx="28" fill="url(#cardA)" stroke="#FFFFFF" stroke-opacity="0.08"/>
    <rect x="584" y="130" width="432" height="372" rx="28" fill="url(#cardB)" stroke="#FFFFFF" stroke-opacity="0.08"/>
    <rect x="1056" y="130" width="432" height="372" rx="28" fill="url(#cardC)" stroke="#FFFFFF" stroke-opacity="0.08"/>
  </g>

  <text x="152" y="182" font-family="Inter, Arial, sans-serif" font-size="20" font-weight="700" fill="#E2E8F0">内容工坊</text>
  <text x="152" y="212" font-family="Inter, Arial, sans-serif" font-size="14" font-weight="500" fill="#94A3B8">选题 · 文案 · 改写 · 复用</text>
  <rect x="152" y="244" width="352" height="188" rx="22" fill="#0B172A" stroke="#60A5FA" stroke-opacity="0.20"/>
  <rect x="180" y="270" width="132" height="18" rx="9" fill="#60A5FA"/>
  <rect x="180" y="302" width="262" height="16" rx="8" fill="#E2E8F0" fill-opacity="0.92"/>
  <rect x="180" y="328" width="230" height="12" rx="6" fill="#94A3B8" fill-opacity="0.82"/>
  <rect x="180" y="350" width="204" height="12" rx="6" fill="#94A3B8" fill-opacity="0.62"/>
  <rect x="180" y="378" width="110" height="36" rx="18" fill="url(#accentA)"/>
  <text x="235" y="401" text-anchor="middle" font-family="Inter, Arial, sans-serif" font-size="13" font-weight="700" fill="#08111F">生成内容</text>
  <circle cx="410" cy="274" r="20" fill="#0F172A" stroke="#60A5FA" stroke-opacity="0.32"/>
  <path d="M400 274H420M410 264V284" stroke="#60A5FA" stroke-width="2.5" stroke-linecap="round"/>

  <text x="624" y="182" font-family="Inter, Arial, sans-serif" font-size="20" font-weight="700" fill="#E2E8F0">分发中枢</text>
  <text x="624" y="212" font-family="Inter, Arial, sans-serif" font-size="14" font-weight="500" fill="#94A3B8">多平台发布 · 定时 · 批量</text>
  <rect x="624" y="244" width="352" height="188" rx="22" fill="#091B13" stroke="#34D399" stroke-opacity="0.20"/>
  <circle cx="680" cy="294" r="18" fill="#34D399"/>
  <circle cx="730" cy="294" r="18" fill="#60A5FA"/>
  <circle cx="780" cy="294" r="18" fill="#F59E0B"/>
  <rect x="826" y="278" width="112" height="12" rx="6" fill="#E2E8F0" fill-opacity="0.92"/>
  <rect x="680" y="344" width="236" height="12" rx="6" fill="#94A3B8" fill-opacity="0.82"/>
  <rect x="680" y="368" width="204" height="12" rx="6" fill="#94A3B8" fill-opacity="0.62"/>
  <rect x="680" y="394" width="126" height="32" rx="16" fill="url(#accentB)"/>
  <text x="743" y="415" text-anchor="middle" font-family="Inter, Arial, sans-serif" font-size="13" font-weight="700" fill="#07150F">一键发布</text>
  <path d="M882 294H924" stroke="#34D399" stroke-width="3" stroke-linecap="round"/>
  <path d="M914 286L924 294L914 302" stroke="#34D399" stroke-width="3" stroke-linecap="round" stroke-linejoin="round"/>

  <text x="1096" y="182" font-family="Inter, Arial, sans-serif" font-size="20" font-weight="700" fill="#E2E8F0">Agent 控制台</text>
  <text x="1096" y="212" font-family="Inter, Arial, sans-serif" font-size="14" font-weight="500" fill="#94A3B8">像聊天一样执行运营任务</text>
  <rect x="1096" y="244" width="352" height="188" rx="22" fill="#170D10" stroke="#F59E0B" stroke-opacity="0.20"/>
  <rect x="1124" y="270" width="212" height="24" rx="12" fill="#0B1220" stroke="#FFFFFF" stroke-opacity="0.08"/>
  <text x="1138" y="287" font-family="Inter, Arial, sans-serif" font-size="12" font-weight="600" fill="#E2E8F0">帮我写一条小红书图文</text>
  <rect x="1152" y="314" width="188" height="24" rx="12" fill="#111827" stroke="#FFFFFF" stroke-opacity="0.08"/>
  <text x="1166" y="331" font-family="Inter, Arial, sans-serif" font-size="12" font-weight="500" fill="#CBD5E1">自动改写为平台风格</text>
  <rect x="1184" y="358" width="156" height="24" rx="12" fill="#111827" stroke="#FFFFFF" stroke-opacity="0.08"/>
  <text x="1198" y="375" font-family="Inter, Arial, sans-serif" font-size="12" font-weight="500" fill="#CBD5E1">提交审核后发布</text>
  <rect x="1124" y="400" width="126" height="32" rx="16" fill="url(#accentC)"/>
  <text x="1187" y="421" text-anchor="middle" font-family="Inter, Arial, sans-serif" font-size="13" font-weight="700" fill="#0D0A09">开始执行</text>
  <path d="M1332 286H1362" stroke="#F59E0B" stroke-width="3" stroke-linecap="round"/>
  <path d="M1352 278L1362 286L1352 294" stroke="#F59E0B" stroke-width="3" stroke-linecap="round" stroke-linejoin="round"/>

  <text x="800" y="584" text-anchor="middle" font-family="Inter, Arial, sans-serif" font-size="22" font-weight="700" fill="#E2E8F0">一条内容，完成创作、分发和运营</text>
  <text x="800" y="612" text-anchor="middle" font-family="Inter, Arial, sans-serif" font-size="14" font-weight="500" fill="#94A3B8">中文团队更容易看懂的工作流示意，强调从输入到发布再到增长的完整闭环。</text>
</svg>
