<svg width="1600" height="640" viewBox="0 0 1600 640" fill="none" xmlns="http://www.w3.org/2000/svg" role="img" aria-label="Social-use product showcase">
  <defs>
    <linearGradient id="bg" x1="120" y1="62" x2="1478" y2="582" gradientUnits="userSpaceOnUse">
      <stop stop-color="#08111F"/>
      <stop offset="1" stop-color="#0F223D"/>
    </linearGradient>
    <linearGradient id="cardA" x1="160" y1="124" x2="518" y2="486" gradientUnits="userSpaceOnUse">
      <stop stop-color="#10233F"/>
      <stop offset="1" stop-color="#0C1A31"/>
    </linearGradient>
    <linearGradient id="cardB" x1="624" y1="124" x2="982" y2="486" gradientUnits="userSpaceOnUse">
      <stop stop-color="#102A1E"/>
      <stop offset="1" stop-color="#0B1E16"/>
    </linearGradient>
    <linearGradient id="cardC" x1="1088" y1="124" x2="1446" y2="486" gradientUnits="userSpaceOnUse">
      <stop stop-color="#26181A"/>
      <stop offset="1" stop-color="#1A0F14"/>
    </linearGradient>
    <linearGradient id="accentA" x1="164" y1="206" x2="480" y2="382" gradientUnits="userSpaceOnUse">
      <stop stop-color="#60A5FA"/>
      <stop offset="1" stop-color="#34D399"/>
    </linearGradient>
    <linearGradient id="accentB" x1="628" y1="206" x2="944" y2="382" gradientUnits="userSpaceOnUse">
      <stop stop-color="#34D399"/>
      <stop offset="1" stop-color="#A7F3D0"/>
    </linearGradient>
    <linearGradient id="accentC" x1="1092" y1="206" x2="1408" y2="382" gradientUnits="userSpaceOnUse">
      <stop stop-color="#F59E0B"/>
      <stop offset="1" stop-color="#FB7185"/>
    </linearGradient>
    <filter id="shadow" x="0" y="0" width="1600" height="640" filterUnits="userSpaceOnUse" color-interpolation-filters="sRGB">
      <feDropShadow dx="0" dy="20" stdDeviation="28" flood-color="#000000" flood-opacity="0.32"/>
    </filter>
  </defs>
  <rect width="1600" height="640" rx="34" fill="url(#bg)"/>
  <path d="M136 118C288 74 422 84 560 134C698 184 832 224 992 224C1144 224 1262 186 1464 114" stroke="#FFFFFF" stroke-opacity="0.10" stroke-width="2"/>
  <path d="M136 540C286 586 424 574 560 522C702 468 842 428 996 430C1148 432 1274 478 1464 548" stroke="#FFFFFF" stroke-opacity="0.08" stroke-width="2"/>
  <circle cx="1328" cy="118" r="130" fill="#60A5FA" fill-opacity="0.08"/>
  <circle cx="1328" cy="524" r="150" fill="#34D399" fill-opacity="0.06"/>
  <g filter="url(#shadow)">
    <rect x="112" y="130" width="432" height="372" rx="28" fill="url(#cardA)" stroke="#FFFFFF" stroke-opacity="0.08"/>
    <rect x="584" y="130" width="432" height="372" rx="28" fill="url(#cardB)" stroke="#FFFFFF" stroke-opacity="0.08"/>
    <rect x="1056" y="130" width="432" height="372" rx="28" fill="url(#cardC)" stroke="#FFFFFF" stroke-opacity="0.08"/>
  </g>
  <text x="152" y="182" font-family="Inter, Arial, sans-serif" font-size="20" font-weight="700" fill="#E2E8F0">Content Hub</text>
  <text x="152" y="212" font-family="Inter, Arial, sans-serif" font-size="14" font-weight="500" fill="#94A3B8">AI creation, rewrite, repurpose</text>
  <rect x="152" y="244" width="352" height="188" rx="22" fill="#0B172A" stroke="#60A5FA" stroke-opacity="0.20"/>
  <rect x="180" y="272" width="180" height="18" rx="9" fill="#60A5FA"/>
  <rect x="180" y="304" width="254" height="16" rx="8" fill="#E2E8F0" fill-opacity="0.9"/>
  <rect x="180" y="332" width="224" height="12" rx="6" fill="#94A3B8" fill-opacity="0.8"/>
  <rect x="180" y="356" width="214" height="12" rx="6" fill="#94A3B8" fill-opacity="0.6"/>
  <rect x="180" y="388" width="118" height="32" rx="16" fill="url(#accentA)"/>
  <text x="239" y="409" text-anchor="middle" font-family="Inter, Arial, sans-serif" font-size="13" font-weight="700" fill="#08111F">Create</text>

  <text x="624" y="182" font-family="Inter, Arial, sans-serif" font-size="20" font-weight="700" fill="#E2E8F0">Distribution</text>
  <text x="624" y="212" font-family="Inter, Arial, sans-serif" font-size="14" font-weight="500" fill="#94A3B8">One-click publishing across platforms</text>
  <rect x="624" y="244" width="352" height="188" rx="22" fill="#091B13" stroke="#34D399" stroke-opacity="0.20"/>
  <circle cx="678" cy="298" r="20" fill="#34D399"/>
  <circle cx="730" cy="298" r="20" fill="#60A5FA"/>
  <circle cx="782" cy="298" r="20" fill="#F59E0B"/>
  <rect x="826" y="282" width="116" height="12" rx="6" fill="#E2E8F0" fill-opacity="0.9"/>
  <rect x="678" y="348" width="240" height="12" rx="6" fill="#94A3B8" fill-opacity="0.8"/>
  <rect x="678" y="372" width="212" height="12" rx="6" fill="#94A3B8" fill-opacity="0.6"/>
  <rect x="678" y="394" width="132" height="32" rx="16" fill="url(#accentB)"/>
  <text x="744" y="415" text-anchor="middle" font-family="Inter, Arial, sans-serif" font-size="13" font-weight="700" fill="#07150F">Publish</text>

  <text x="1096" y="182" font-family="Inter, Arial, sans-serif" font-size="20" font-weight="700" fill="#E2E8F0">Agent Console</text>
  <text x="1096" y="212" font-family="Inter, Arial, sans-serif" font-size="14" font-weight="500" fill="#94A3B8">Chat with AI to run operations</text>
  <rect x="1096" y="244" width="352" height="188" rx="22" fill="#1A1012" stroke="#F59E0B" stroke-opacity="0.20"/>
  <rect x="1124" y="270" width="212" height="24" rx="12" fill="#0B1220" stroke="#FFFFFF" stroke-opacity="0.08"/>
  <text x="1138" y="287" font-family="Inter, Arial, sans-serif" font-size="12" font-weight="600" fill="#E2E8F0">Generate a Xiaohongshu post</text>
  <rect x="1152" y="314" width="188" height="24" rx="12" fill="#111827" stroke="#FFFFFF" stroke-opacity="0.08"/>
  <text x="1166" y="331" font-family="Inter, Arial, sans-serif" font-size="12" font-weight="500" fill="#CBD5E1">Rewrite for platform style</text>
  <rect x="1184" y="358" width="156" height="24" rx="12" fill="#111827" stroke="#FFFFFF" stroke-opacity="0.08"/>
  <text x="1198" y="375" font-family="Inter, Arial, sans-serif" font-size="12" font-weight="500" fill="#CBD5E1">Schedule for review</text>
  <rect x="1124" y="400" width="126" height="32" rx="16" fill="url(#accentC)"/>
  <text x="1187" y="421" text-anchor="middle" font-family="Inter, Arial, sans-serif" font-size="13" font-weight="700" fill="#0D0A09">Assist</text>
</svg>
